<svg width="762" height="676" viewBox="0 0 762 676" fill="none" xmlns="http://www.w3.org/2000/svg">
<path d="M56.3582 328.741V667.519C56.3582 675.971 69.3882 675.971 69.3882 667.519V328.741C69.3882 320.289 56.3582 320.289 56.3582 328.741Z" fill="#FAFAFA"/>
<path d="M562.064 363.96H45.7973C35.5843 363.96 27.1333 355.508 27.1333 345.296V235.07C27.1333 224.857 35.5843 216.405 45.7973 216.405H562.064C572.276 216.405 580.728 224.857 580.728 235.07V345.296C580.728 355.508 572.276 363.96 562.064 363.96Z" fill="#18181B"/>
<path d="M562.061 366.424H45.7952C33.8222 366.424 24.3132 356.915 24.3132 344.942V234.717C24.3132 222.743 33.8222 213.234 45.7952 213.234H562.061C574.035 213.234 583.543 222.743 583.543 234.717V344.942C583.543 356.915 573.683 366.424 562.061 366.424ZM45.7952 218.869C36.9912 218.869 29.5962 226.265 29.5962 235.069V345.294C29.5962 354.098 36.9912 361.494 45.7952 361.494H562.061C570.865 361.494 578.261 354.098 578.261 345.294V235.069C578.261 226.265 570.865 218.869 562.061 218.869H45.7952Z" fill="#FAFAFA"/>
<path d="M562.064 468.201H45.7973C35.5843 468.201 27.1333 459.749 27.1333 449.536V419.603C27.1333 409.39 35.5843 400.938 45.7973 400.938H562.064C572.276 400.938 580.728 409.39 580.728 419.603V449.536C580.728 459.749 572.276 468.201 562.064 468.201Z" fill="#18181B"/>
<path d="M562.061 470.664H45.7952C33.8222 470.664 24.3132 461.155 24.3132 449.182V419.247C24.3132 407.274 33.8222 397.766 45.7952 397.766H562.061C574.035 397.766 583.543 407.274 583.543 419.247V449.182C583.543 461.155 573.683 470.664 562.061 470.664ZM45.7952 403.401C36.9912 403.401 29.5962 410.796 29.5962 419.6V449.534C29.5962 458.338 36.9912 465.733 45.7952 465.733H562.061C570.865 465.733 578.261 458.338 578.261 449.534V419.6C578.261 410.796 570.865 403.401 562.061 403.401H45.7952Z" fill="#FAFAFA"/>
<path d="M580.726 266.056H27.1312C25.7222 266.056 24.3142 265 24.3142 263.239C24.3142 261.478 25.3702 260.422 27.1312 260.422H581.079C582.487 260.422 583.896 261.478 583.896 263.239C583.896 265 582.135 266.056 580.726 266.056Z" fill="#FAFAFA"/>
<path d="M580.726 315.712H27.1312C25.7222 315.712 24.3142 314.654 24.3142 312.893C24.3142 311.132 25.3702 310.077 27.1312 310.077H581.079C582.487 310.077 583.896 311.132 583.896 312.893C583.896 314.654 582.135 315.712 580.726 315.712Z" fill="#FAFAFA"/>
<path d="M580.726 426.293H27.1312C25.7222 426.293 24.3142 425.236 24.3142 423.475C24.3142 421.714 25.3702 420.658 27.1312 420.658H581.079C582.487 420.658 583.896 421.714 583.896 423.475C583.896 425.236 582.135 426.293 580.726 426.293Z" fill="#FAFAFA"/>
<path d="M580.726 447.771H27.1302C25.7222 447.771 24.3132 446.715 24.3132 444.954C24.3132 443.193 25.3702 442.137 27.1302 442.137H581.078C582.487 442.137 583.895 443.193 583.895 444.954C583.895 446.715 582.135 447.771 580.726 447.771Z" fill="#FAFAFA"/>
<path d="M603.619 671.048H446.203V612.942L540.23 576.317C540.23 576.317 543.751 598.855 552.203 617.52C552.555 618.576 553.26 619.633 553.612 620.337C555.021 623.507 556.781 626.676 558.542 629.493C559.246 630.55 559.951 631.254 560.303 632.311C563.825 636.889 568.05 640.41 572.629 642.171C584.954 646.397 592.349 652.032 596.928 656.962C597.984 658.018 598.688 659.075 599.393 660.131C603.619 666.118 603.619 671.048 603.619 671.048Z" fill="#FAFAFA"/>
<path d="M599.035 659.773H445.845V656.604H596.218C597.626 657.661 598.33 658.716 599.035 659.773Z" fill="#18181B"/>
<path d="M553.259 620.335C546.568 623.504 539.524 627.026 532.833 630.195C531.073 630.899 529.312 628.434 531.073 627.378C538.116 624.208 544.807 620.687 551.85 617.517H552.202C552.202 618.574 552.906 619.278 553.259 620.335Z" fill="#18181B"/>
<path d="M560.297 631.958C554.31 636.184 548.675 640.409 542.689 644.635C540.928 645.691 539.167 642.875 540.928 641.819C546.562 637.593 552.549 633.719 558.184 629.493C558.888 630.197 559.592 631.254 560.297 631.958Z" fill="#18181B"/>
<path d="M740.609 502.357L597.984 569.268L593.054 559.055L591.645 556.238L565.937 501.301L642.708 443.547C642.708 443.547 655.386 462.211 670.881 475.945C671.585 476.65 672.642 477.354 673.346 478.058C676.163 480.171 678.981 482.284 681.798 484.045C682.854 484.749 683.559 485.102 684.615 485.454C689.898 488.271 694.828 489.68 699.758 489.327C712.788 487.919 721.592 489.68 727.931 492.497C729.339 493.201 730.396 493.553 731.805 494.258C738.496 497.779 740.609 502.357 740.609 502.357Z" fill="#FAFAFA"/>
<path d="M542.693 567.863C539.523 548.142 534.945 520.321 530.367 490.739C540.227 507.291 547.271 518.208 547.271 518.208L661.37 461.861C661.37 461.861 628.62 397.769 581.078 313.251C533.536 228.732 431.058 271.695 330.34 295.642L331.044 299.163C293.715 299.516 256.386 300.925 219.41 304.447C195.111 306.912 171.516 311.49 147.921 316.772C145.808 390.374 150.386 442.846 202.506 445.311C268.712 448.48 402.181 445.311 402.181 445.311C402.181 445.311 399.363 536.168 415.563 591.105C415.915 592.162 416.267 593.218 416.619 594.275C420.141 605.192 424.367 614.347 429.649 621.038L547.975 596.035C547.975 596.035 546.566 586.526 544.101 570.679C543.045 569.974 542.693 568.919 542.693 567.863Z" fill="#18181B"/>
<path d="M427.536 624.206L426.48 622.798C421.197 616.107 416.971 606.951 413.098 594.977C412.745 593.921 412.393 592.864 412.041 591.808C397.603 542.505 398.307 463.621 398.659 447.774C379.29 448.126 261.669 450.592 201.449 447.774C145.456 444.957 142.639 386.498 144.4 316.419V314.306L146.513 313.953C167.994 309.375 193.35 304.093 218.353 301.628C250.048 298.458 283.503 297.05 327.171 296.345L326.466 293.528L328.931 292.824C343.37 289.302 357.808 285.781 371.895 281.907C458.878 259.017 540.932 237.535 582.839 311.841C630.028 395.302 662.779 459.748 663.131 460.452L664.188 462.917L545.51 521.728L544.101 519.615C544.101 519.615 540.227 513.276 534.241 503.768C538.114 528.067 541.636 550.957 544.453 567.509C544.453 568.213 544.805 568.565 544.805 569.269L549.384 598.499L427.536 624.206ZM404.294 442.492V445.309C404.294 446.366 401.476 536.519 417.324 590.399C417.676 591.456 418.028 592.512 418.38 593.568C421.549 604.133 425.423 612.233 430.001 618.22L544.453 594.273L540.58 570.326C540.58 569.622 540.227 568.917 540.227 568.565C537.058 548.844 532.48 521.024 527.902 491.442L525.437 477.708L532.48 489.329C539.875 501.655 545.51 510.811 547.975 514.685L657.497 460.452C651.158 448.126 620.52 388.964 578.261 314.306C538.114 243.522 458.174 264.651 373.304 286.837C359.921 290.359 346.539 293.88 332.805 297.05L333.509 301.276H330.34C285.616 301.98 251.104 303.389 219.057 306.558C194.758 309.023 170.812 313.954 149.682 318.532C147.569 397.063 155.669 440.027 201.802 442.492C267.303 445.661 400.068 442.492 401.476 442.492H404.294Z" fill="#FAFAFA"/>
<path d="M472.966 338.251H472.614L429.298 329.447C427.889 329.095 426.833 327.686 427.185 326.278C427.537 324.869 428.946 323.813 430.355 324.165L473.67 332.968C475.079 333.32 476.135 334.729 475.783 336.137C475.431 337.194 474.375 338.251 472.966 338.251Z" fill="#FAFAFA"/>
<path d="M731.8 494.258L593.049 559.408L591.64 556.59L727.926 492.849C729.687 492.849 730.743 493.554 731.8 494.258Z" fill="#18181B"/>
<path d="M673.698 478.062C668.768 484.049 664.19 489.683 659.259 495.669C657.851 497.43 655.386 495.318 656.442 493.91C661.372 487.923 665.95 482.288 670.881 476.302C671.937 476.654 672.641 477.358 673.698 478.062Z" fill="#18181B"/>
<path d="M682.852 484.396C679.682 489.679 676.865 495.313 673.695 500.596C672.639 502.356 675.456 504.469 676.513 502.709C679.682 497.074 682.852 491.439 686.021 486.157L682.852 484.396Z" fill="#18181B"/>
<path d="M520.509 474.538C519.805 474.538 518.748 474.187 518.396 473.483C487.406 425.941 471.559 388.611 460.29 336.491C459.938 335.083 460.994 333.674 462.403 333.322C463.812 332.97 465.22 334.027 465.572 335.436C476.841 386.851 492.336 423.476 522.974 470.665C523.679 471.722 523.327 473.483 522.27 474.187C521.566 474.187 521.214 474.538 520.509 474.538Z" fill="#FAFAFA"/>
<path d="M541.987 493.908C540.931 493.908 540.226 493.203 539.522 492.499C538.818 491.091 539.522 489.682 540.578 488.978C574.386 472.074 608.193 454.113 640.944 435.096C642.353 434.392 643.761 434.744 644.466 436.153C645.17 437.561 644.818 438.97 643.409 439.674C610.658 458.691 576.499 476.652 542.691 493.556C543.044 493.908 542.691 493.908 541.987 493.908Z" fill="#FAFAFA"/>
<path d="M422.956 592.512C421.548 592.512 420.491 591.454 420.491 590.398C420.139 588.989 421.195 587.581 422.604 587.229L448.312 582.65C478.245 577.016 503.601 572.439 537.408 566.452C538.817 566.1 540.225 567.155 540.578 568.564C540.93 569.972 539.873 571.382 538.465 571.734C505.009 577.721 479.654 582.651 449.368 587.934L423.661 592.512C423.308 592.16 423.308 592.512 422.956 592.512Z" fill="#FAFAFA"/>
<path d="M94.0433 129.414C91.2263 129.414 88.7603 129.062 85.9433 128.358C81.3653 126.949 77.4913 125.188 73.6183 123.075C70.0963 121.314 66.9273 119.553 63.4053 118.497C55.3053 116.032 44.3883 116.032 39.4583 125.54C38.7543 126.949 37.3453 127.301 35.9363 126.597C34.5283 125.892 34.1763 124.484 34.8803 123.075C41.2193 110.75 54.9533 110.397 65.1663 113.567C69.0393 114.975 72.5613 116.736 76.0833 118.497C79.9563 120.61 83.4783 122.371 87.7043 123.427C97.5643 126.245 106.721 122.723 112.355 114.623C113.059 113.567 114.82 113.215 115.877 113.919C116.933 114.623 117.285 116.384 116.581 117.441C110.947 125.188 102.847 129.414 94.0433 129.414Z" fill="#F4D969"/>
<path d="M94.0433 148.08C91.2263 148.08 88.7603 147.728 85.9433 147.023C81.3653 145.615 77.4913 143.854 73.6183 141.741C70.0963 139.98 66.9273 138.22 63.4053 137.163C55.3053 134.698 44.3883 134.698 39.4583 144.206C38.7543 145.615 37.3453 145.967 35.9363 145.263C34.5283 144.558 34.1763 143.15 34.8803 141.741C41.2193 129.416 54.9533 129.063 65.1663 132.233C69.0393 133.641 72.5613 135.402 76.0833 137.163C79.9563 139.276 83.4783 141.037 87.7043 142.093C97.5643 144.911 106.721 141.389 112.355 133.289C113.059 132.233 114.82 131.881 115.877 132.585C116.933 133.289 117.285 135.05 116.581 136.107C110.947 143.854 102.847 148.08 94.0433 148.08Z" fill="#F4D969"/>
<path d="M117.286 101.24L136.302 94.5495L133.837 114.622L117.286 101.24Z" fill="#F4D969"/>
<path d="M742.015 399.52C732.859 399.52 722.999 395.294 714.195 391.421C708.912 389.308 703.982 386.843 699.756 385.786C685.67 381.912 670.527 385.434 658.906 395.294C657.849 396.351 656.088 395.999 655.032 394.942C653.975 393.886 654.328 392.125 655.384 391.069C668.414 380.152 685.318 376.278 701.165 380.504C706.095 381.912 711.025 384.025 716.308 386.49C730.746 392.829 745.889 399.52 756.806 387.899C757.863 386.843 759.623 386.843 760.68 387.899C761.736 388.956 761.736 390.716 760.68 391.773C755.045 397.407 748.706 399.52 742.015 399.52Z" fill="#F4D969"/>
<path d="M742.015 426.641C732.859 426.641 722.998 422.416 714.194 418.542C708.912 416.429 703.981 413.964 699.755 412.907C685.669 409.033 670.526 412.555 658.905 422.416C657.848 423.472 656.088 423.12 655.031 422.063C653.975 421.007 654.327 419.246 655.383 418.19C668.413 407.273 685.317 403.399 701.164 407.625C706.094 409.033 711.025 411.146 716.307 413.612C730.746 419.95 745.889 426.641 756.805 415.02C757.862 413.964 759.623 413.964 760.679 415.02C761.736 416.077 761.736 417.837 760.679 418.894C755.045 424.528 748.706 426.641 742.015 426.641Z" fill="#F4D969"/>
<path d="M641.743 335.639L619.326 351.51L635.197 373.928L657.614 358.056L641.743 335.639Z" fill="#F4D969"/>
<path d="M136.648 675.615C135.592 675.615 134.887 675.263 134.535 674.206L113.758 639.342C113.053 637.934 113.405 636.525 114.814 635.821C116.223 635.116 117.631 635.469 118.336 636.877L139.113 671.741C139.818 673.15 139.465 674.558 138.057 675.263C137.352 675.615 137 675.615 136.648 675.615Z" fill="#FAFAFA"/>
<path d="M153.201 675.266C152.145 675.266 151.088 674.561 150.736 673.153L146.51 656.953C146.158 655.545 146.862 654.136 148.271 653.784C149.68 653.432 151.088 654.136 151.44 655.545L155.666 671.744C156.018 673.153 155.314 674.561 153.905 674.913C153.905 675.266 153.553 675.266 153.201 675.266Z" fill="#FAFAFA"/>
<path d="M13.3962 675.613C12.3402 675.613 11.6362 675.261 11.2832 674.204L0.366217 656.948C-0.337783 655.54 0.0142193 654.132 1.07122 653.428C2.12722 652.723 3.88822 653.075 4.59222 654.131L15.5092 671.387C16.2142 672.796 15.8612 674.204 14.8052 674.909C14.4532 675.613 13.7482 675.613 13.3962 675.613Z" fill="#FAFAFA"/>
<path d="M630.727 674.206C630.375 674.206 630.023 674.207 629.671 673.854C628.262 673.15 627.91 671.741 628.262 670.333L636.714 651.668C637.418 650.26 638.827 649.907 640.236 650.26C641.644 650.964 641.996 652.373 641.644 653.781L633.193 672.446C632.84 673.502 631.784 674.206 630.727 674.206Z" fill="#FAFAFA"/>
<path d="M436.346 31.1615C440.625 31.1615 444.094 27.6925 444.094 23.4135C444.094 19.1345 440.625 15.6665 436.346 15.6665C432.068 15.6665 428.599 19.1345 428.599 23.4135C428.599 27.6925 432.068 31.1615 436.346 31.1615Z" fill="#FAFAFA"/>
<path d="M464.518 31.1615C468.797 31.1615 472.265 27.6925 472.265 23.4135C472.265 19.1345 468.797 15.6665 464.518 15.6665C460.239 15.6665 456.77 19.1345 456.77 23.4135C456.77 27.6925 460.239 31.1615 464.518 31.1615Z" fill="#FAFAFA"/>
<path d="M586.718 136.103H561.01C557.841 136.103 555.376 133.638 555.376 130.468C555.376 127.299 557.841 124.834 561.01 124.834H586.718C589.887 124.834 592.353 127.299 592.353 130.468C592 133.638 589.535 136.103 586.718 136.103Z" fill="#FAFAFA"/>
<path d="M572.984 160.755H560.659C557.489 160.755 555.024 158.29 555.024 155.121C555.024 151.951 557.489 149.486 560.659 149.486H572.984C576.154 149.486 578.619 151.951 578.619 155.121C578.619 158.29 576.154 160.755 572.984 160.755Z" fill="#FAFAFA"/>
<path d="M626.511 160.755H593.056C589.887 160.755 587.422 158.29 587.422 155.121C587.422 151.951 589.887 149.486 593.056 149.486H626.511C629.681 149.486 632.146 151.951 632.146 155.121C632.146 158.29 629.681 160.755 626.511 160.755Z" fill="#FAFAFA"/>
<path d="M618.412 136.103H605.03C601.861 136.103 599.395 133.638 599.395 130.468C599.395 127.299 601.861 124.834 605.03 124.834H618.412C621.582 124.834 624.047 127.299 624.047 130.468C623.695 133.638 621.229 136.103 618.412 136.103Z" fill="#FAFAFA"/>
<path d="M669.479 136.103H637.784C634.615 136.103 632.15 133.638 632.15 130.468C632.15 127.299 634.615 124.834 637.784 124.834H669.479C672.648 124.834 675.113 127.299 675.113 130.468C674.761 133.638 672.296 136.103 669.479 136.103Z" fill="#FAFAFA"/>
<path d="M507.122 276.974H415.561L360.976 319.938C356.398 323.459 358.863 331.207 364.85 331.207H438.451L507.122 276.974Z" fill="#FAFAFA"/>
<path d="M526.845 192.452L507.124 276.971L438.453 331.202L446.2 291.408L449.37 274.153L450.426 268.166L454.3 247.389L458.526 225.906C459.582 220.976 462.752 217.102 466.978 214.989L522.971 189.635C525.084 188.578 527.549 190.339 526.845 192.452Z" fill="#FAFAFA"/>
<path d="M492.519 235.118L482.061 245.577L492.519 256.035L502.978 245.577L492.519 235.118Z" fill="#18181B"/>
<path d="M405.346 326.271H388.09C386.681 326.271 385.272 325.215 385.272 323.454C385.272 321.693 386.329 320.637 388.09 320.637H405.346C406.754 320.637 408.163 321.693 408.163 323.454C408.163 325.215 406.754 326.271 405.346 326.271Z" fill="#18181B"/>
<path d="M453.6 247.038C425.78 237.529 371.899 236.473 371.899 236.473C367.673 218.161 333.514 155.123 312.736 138.924L317.667 266.759C317.667 266.759 381.055 277.322 419.441 285.07C429.653 272.04 439.866 256.898 453.6 247.038Z" fill="#FAFAFA"/>
<path d="M444.092 287.893C437.049 285.78 422.611 282.61 400.425 278.737C408.172 261.833 421.554 249.86 437.401 245.634C443.036 246.69 447.614 248.099 451.488 249.155L444.092 287.893Z" fill="#18181B"/>
<path d="M437.756 248.091C441.982 248.795 445.504 249.852 448.673 250.908L442.334 284.715C436.7 283.307 426.135 280.842 404.653 276.616C411.696 262.177 423.67 251.965 437.756 248.091ZM437.404 242.808C418.74 247.386 404.301 261.473 396.553 280.489C419.796 284.715 440.573 288.941 445.856 291.054L454.308 247.034C449.73 245.626 443.743 243.865 437.404 242.808Z" fill="#FAFAFA"/>
<path d="M450.779 268.166L449.723 274.152C447.962 268.87 445.145 263.587 441.623 259.009C440.215 257.249 443.032 255.84 444.44 257.249C446.906 260.418 449.019 264.292 450.779 268.166Z" fill="#FAFAFA"/>
<path d="M415.566 84.6855L392.323 176.952L439.513 172.021L460.643 203.363V127.297L426.483 133.637L415.566 84.6855Z" fill="#18181B"/>
<path d="M463.46 212.173L438.104 174.844L388.45 180.126L415.566 73.4225L428.244 130.473L463.108 124.133V212.173H463.46ZM440.921 169.21L458.177 194.917V130.824L424.37 137.163L415.214 96.6645L395.493 174.492L440.921 169.21Z" fill="#F4D969"/>
<path d="M534.95 55.4655L493.748 98.0765L519.103 109.697L515.934 139.279L544.107 92.0895L524.738 85.0464L534.95 55.4655Z" fill="#18181B"/>
<path d="M512.056 151.247L516.282 111.453L489.166 99.1285L541.285 45.5995L528.256 83.9855L547.976 91.0285L512.056 151.247ZM498.322 97.3675L521.917 107.932L519.804 127.654L540.229 93.4935L521.564 86.8025L528.608 66.0255L498.322 97.3675Z" fill="#F4D969"/>
<path d="M345.836 138.219C345.132 138.219 344.78 137.867 344.075 137.514L327.172 123.428C326.115 122.372 325.763 120.964 326.82 119.555C327.876 118.499 329.285 118.146 330.693 119.202L347.597 133.289C348.653 134.345 349.006 135.755 347.949 137.163C347.245 137.868 346.54 138.219 345.836 138.219Z" fill="#FAFAFA"/>
<path d="M365.911 103.711C365.558 103.711 365.558 103.711 365.911 103.711L341.964 100.894C340.555 100.541 339.499 99.4855 339.499 98.0765C339.499 96.6685 340.907 95.6115 342.316 95.6115L365.911 98.4285C367.319 98.7815 368.376 99.8375 368.376 101.246C368.376 102.654 366.967 103.711 365.911 103.711Z" fill="#FAFAFA"/>
<path d="M346.895 88.2135C345.486 88.2135 344.43 87.1575 344.43 85.7485C344.43 84.3395 345.486 82.9315 346.895 82.9315L356.755 82.2265C358.164 82.2265 359.572 83.2835 359.572 84.6915C359.572 86.1005 358.516 87.5095 357.107 87.5095L346.895 88.2135Z" fill="#FAFAFA"/>
<path d="M343.014 301.975C349.705 262.533 364.496 133.29 273.991 123.781C209.545 117.09 152.848 146.672 149.678 251.968C148.622 281.197 147.213 308.665 146.861 333.317C213.419 329.795 278.921 319.231 343.014 301.975Z" fill="#FAFAFA"/>
<path d="M333.153 222.033C332.097 222.033 331.04 221.329 330.688 220.272L319.419 188.578C319.067 187.169 319.771 185.761 321.18 185.056C322.588 184.704 323.997 185.409 324.701 186.818L335.97 218.512C336.322 219.92 335.618 221.329 334.21 222.033C333.505 222.033 333.153 222.033 333.153 222.033Z" fill="#18181B"/>
<path d="M349.36 252.318C402.888 249.149 420.848 243.867 435.639 280.139C450.43 316.412 428.244 304.438 428.244 304.438C428.244 304.438 427.187 312.538 410.283 310.073C410.283 310.073 396.549 317.819 388.097 310.424C379.645 303.381 375.067 298.099 368.729 309.721C362.39 320.99 333.865 323.455 326.117 315.003C313.792 301.973 349.36 252.318 349.36 252.318Z" fill="#18181B"/>
<path d="M342.67 322.752C335.627 322.752 327.879 321.343 324.006 316.765C310.623 302.679 343.374 255.841 347.248 250.559L347.952 249.503H349.361C354.996 249.15 359.926 248.798 364.504 248.446C406.763 245.629 424.019 244.572 438.105 279.084C444.092 294.227 445.149 303.031 440.57 306.905C437.401 309.722 432.471 308.665 429.654 307.609C429.301 308.313 428.245 309.37 427.541 310.074C424.019 312.891 418.384 313.596 410.989 312.539C407.467 314.3 395.142 319.582 386.338 312.187L384.929 310.778C381.408 307.609 378.238 304.792 376.125 305.144C374.717 305.496 372.956 307.257 371.195 310.426C368.026 316.413 359.574 320.639 349.009 321.695C346.896 322.752 344.783 322.752 342.67 322.752ZM350.77 254.785C337.74 273.449 320.484 305.144 327.879 313.244C331.049 316.765 339.148 318.175 347.952 317.118C356.756 316.062 363.8 312.891 366.265 308.313C369.082 303.383 371.899 300.918 375.069 300.214C379.647 299.509 383.521 302.679 388.099 306.905L389.507 308.313C396.55 314.3 408.876 307.609 408.876 307.609L409.58 307.257H410.637C421.554 309.018 425.075 305.848 425.428 303.735L426.132 300.214L429.301 301.974C431.062 303.031 435.288 304.44 437.049 303.031C437.753 302.327 440.571 298.805 433.175 281.197C420.497 250.207 406.411 251.263 364.856 254.081C360.278 254.433 355.7 254.433 350.77 254.785Z" fill="#FAFAFA"/>
<path d="M177.504 157.943C143.344 195.625 113.763 290.003 135.597 336.489C147.922 362.901 181.377 367.127 227.158 363.605C262.726 360.788 305.338 349.165 351.823 323.458C351.823 323.458 339.849 269.226 351.823 248.449L230.68 256.195L229.623 153.718L177.504 157.943Z" fill="#FAFAFA"/>
<path d="M411.695 307.614C408.877 293.879 401.482 281.906 390.565 273.102C388.804 271.693 386.691 274.159 388.1 275.567C398.665 284.019 405.708 295.288 408.525 308.67C408.877 310.783 412.047 309.727 411.695 307.614Z" fill="#FAFAFA"/>
<path d="M412.393 264.648C410.984 262.887 408.871 265.352 409.928 267.113C419.788 278.382 425.423 291.763 426.831 306.554C427.183 308.667 430.353 308.667 430.001 306.554C428.944 290.706 422.605 276.621 412.393 264.648Z" fill="#FAFAFA"/>
<path d="M231.736 261.126C230.328 261.126 229.271 260.07 229.271 258.661C227.158 234.01 226.806 209.008 227.51 184.357C227.51 182.948 228.919 181.891 230.328 181.891C231.736 181.891 232.793 183.299 232.793 184.708C232.088 209.359 232.441 234.01 234.553 258.661C234.553 259.718 233.145 261.126 231.736 261.126Z" fill="#18181B"/>
<path d="M222.933 263.589C221.524 263.589 220.468 262.533 220.468 261.124C220.468 259.716 221.172 258.307 222.933 258.307C263.079 253.377 304.282 250.207 344.78 248.799C346.189 248.799 347.597 249.855 347.597 251.264C347.597 252.672 346.541 254.081 345.132 254.081C304.282 255.49 263.431 258.659 222.933 263.589Z" fill="#18181B"/>
<path d="M332.81 324.52C331.754 324.52 331.049 323.816 330.345 323.111C319.78 300.925 317.667 276.978 324.006 253.384C324.358 251.975 325.767 251.272 327.175 251.624C328.584 251.976 329.288 253.385 328.936 254.793C322.95 276.979 324.71 299.87 334.923 320.999C335.627 322.408 334.923 323.816 333.514 324.52C333.866 324.168 333.162 324.52 332.81 324.52Z" fill="#18181B"/>
<path d="M299.354 34.3275C277.52 21.6505 248.29 30.8065 233.852 55.1055V55.4575C231.387 54.4005 229.274 53.3445 227.161 52.6405C212.37 48.7665 202.157 58.9795 204.27 70.9525C206.383 81.5175 215.187 92.0825 228.217 93.4905C231.035 105.112 237.726 115.324 247.586 122.367C276.815 143.145 298.649 125.889 313.088 101.59C327.174 77.2915 320.835 47.0055 299.354 34.3275Z" fill="#18181B"/>
<path d="M272.589 133.993C263.785 133.993 254.981 130.823 245.825 124.132C236.317 117.441 229.274 107.228 226.104 95.6075C212.37 93.4945 203.566 81.5215 201.453 71.3085C200.044 64.9695 202.157 58.6305 206.735 54.4045C212.018 49.4745 219.413 47.7135 227.513 49.8265C229.274 50.1795 231.034 50.8835 232.795 51.5875C248.29 27.2885 278.224 18.4845 300.762 31.5145C323.652 44.8965 330.343 76.9435 315.201 102.298C304.988 119.906 293.015 130.119 279.985 132.936C277.519 133.993 275.054 133.993 272.589 133.993ZM220.822 54.4045C216.596 54.4045 213.074 55.8135 210.257 58.2785C207.087 61.4485 205.679 65.6745 206.735 70.6045C208.496 79.7605 216.244 89.9735 228.217 91.0295H229.978L230.33 92.7905C233.147 104.059 239.486 113.567 248.642 119.906C259.207 127.302 269.068 130.119 278.576 128.006C290.197 125.541 300.762 116.032 310.27 99.8335C323.652 76.9435 318.018 48.4185 297.593 36.0925C277.167 24.1195 249.347 32.9235 235.965 55.8135L234.556 57.9265L232.091 56.8705C229.978 55.8135 227.865 54.7575 225.752 54.4045C224.343 54.7575 222.583 54.4045 220.822 54.4045Z" fill="#FAFAFA"/>
<path d="M283.547 86.0895C285.104 84.9235 285.421 82.7165 284.255 81.1595C283.089 79.6035 280.882 79.2865 279.326 80.4515C277.769 81.6175 277.452 83.8245 278.618 85.3815C279.784 86.9385 281.991 87.2555 283.547 86.0895Z" fill="#FAFAFA"/>
<path d="M295.834 108.993C299.003 101.598 300.764 94.2025 301.82 86.1035C302.173 83.9905 298.651 83.2855 298.299 85.7515C297.595 93.1465 295.482 100.541 292.664 107.584C291.608 109.697 294.777 111.106 295.834 108.993Z" fill="#FAFAFA"/>
<path d="M234.907 76.5975C233.498 68.4975 226.455 62.1595 218.356 61.8065C216.243 61.8065 215.538 65.3285 218.003 65.3285C224.694 65.6805 230.329 70.2585 231.738 76.9495C231.738 79.4145 235.259 79.0625 234.907 76.5975Z" fill="#FAFAFA"/>
<path d="M310.268 61.8055C298.999 60.0445 261.318 39.9715 253.922 62.8625C252.162 68.4965 252.866 73.0745 246.527 72.7225C240.188 71.6665 242.301 64.6225 242.301 64.6225C236.667 59.6925 233.497 58.2845 226.806 55.1145C229.271 30.4635 244.414 17.7855 254.627 20.9555C254.627 20.9555 288.434 -17.0785 301.464 9.33349C301.464 9.33349 343.371 -9.33052 349.71 30.8155C356.049 70.9615 310.268 61.8055 310.268 61.8055Z" fill="#FAFAFA"/>
</svg>
