<svg width="739" height="739" viewBox="0 0 739 739" fill="none" xmlns="http://www.w3.org/2000/svg">
<path fill-rule="evenodd" clip-rule="evenodd" d="M369.5 739C573.569 739 739 573.569 739 369.5C739 165.431 573.569 0 369.5 0C165.431 0 0 165.431 0 369.5C0 573.569 165.431 739 369.5 739ZM319.548 208.325C320.396 207.849 321.321 207.507 322.448 206.979L326.185 205.221H384.446H442.707L446.445 206.979C453.626 210.35 458.39 218.778 457.511 226.473C457.217 228.818 448.79 248.532 431.714 287.006C422.996 306.543 415.215 324.062 410.534 334.603C407.7 340.984 406.001 344.808 405.918 344.974C405.625 345.707 412.221 345.926 437.284 345.926C469.089 345.926 469.089 345.926 472.754 347.685C477.224 349.737 481.255 354.061 483.014 358.605C484.552 362.709 484.259 369.964 482.354 373.701C480.522 377.219 353.52 529.357 350.809 531.336C348.17 533.168 342.747 535 339.743 535C332.048 535 323.254 528.478 321.128 521.149C320.469 518.951 319.956 516.459 319.956 515.653C319.956 514.774 324.866 492.129 330.802 465.233L341.648 416.353L305.372 416.133L269.023 415.913L264.846 413.861C258.104 410.563 254 404.041 254 396.566C254 394.074 261.695 370.037 283.68 304.081C312.006 219.104 314.38 211.225 319.548 208.325Z" fill="#F5D969"/>
</svg>
